<svg width="128" height="128" viewBox="0 0 128 128" fill="none" xmlns="http://www.w3.org/2000/svg">
<rect width="128" height="128" fill="black"/>
<path d="M86.0501 50.5565H78.9268C78.0969 50.5565 77.3073 50.2003 76.758 49.5804L73.8684 46.3162C73.4383 45.829 72.8184 45.5518 72.1699 45.5518C71.5214 45.5518 70.9015 45.8306 70.4714 46.3162L67.9934 49.1167C67.182 50.0323 66.0177 50.5582 64.7947 50.5582H25.8036C24.6931 53.7233 23.969 57.0665 23.6801 60.534H60.4889C61.1357 60.534 61.7556 60.2702 62.2025 59.8032L65.6297 56.2265C66.0581 55.7796 66.6494 55.5276 67.2677 55.5276H67.4088C68.0589 55.5276 68.6772 55.8065 69.1073 56.2937L71.9952 59.5579C72.5445 60.1795 73.3341 60.534 74.1641 60.534H104.209C103.92 57.0648 103.196 53.7216 102.086 50.5582H86.0484L86.0501 50.5565Z" fill="white"/>
<path d="M45.9552 81.5108C46.602 81.5108 47.2219 81.247 47.6688 80.78L51.096 77.2033C51.5244 76.7564 52.1158 76.5044 52.734 76.5044H52.8751C53.5253 76.5044 54.1435 76.7833 54.5736 77.2688L57.4615 80.533C58.0109 81.1546 58.8005 81.5091 59.6304 81.5091H100.347C101.872 78.3574 102.99 74.9756 103.655 71.4325H64.573C63.7431 71.4325 62.9535 71.0763 62.4041 70.4564L59.5162 67.1921C59.0861 66.7049 58.4662 66.4277 57.8177 66.4277C57.1692 66.4277 56.5493 66.7066 56.1192 67.1921L53.6412 69.9927C52.8298 70.9083 51.6655 71.4341 50.4408 71.4341H24.2345C24.8998 74.9773 26.0187 78.3591 27.5424 81.5108H45.9535H45.9552Z" fill="white"/>
<path d="M74.8411 39.6536C75.4879 39.6536 76.1078 39.3899 76.5547 38.9228L79.9819 35.3461C80.4103 34.8992 81.0016 34.6472 81.6199 34.6472H81.761C82.4111 34.6472 83.0294 34.9261 83.4595 35.4133L86.3474 38.6776C86.8967 39.2992 87.6863 39.6536 88.5163 39.6536H96.2594C88.8859 29.8525 77.1578 23.5122 63.9463 23.5122C50.7348 23.5122 39.0067 29.8525 31.6315 39.6536H74.8411Z" fill="white"/>
<path d="M59.2877 91.4964H48.6987C47.8687 91.4964 47.0791 91.1403 46.5298 90.5203L43.6419 87.2561C43.2118 86.7689 42.5919 86.4917 41.9434 86.4917C41.2949 86.4917 40.675 86.7706 40.2449 87.2561L37.7669 90.0567C36.9555 90.9723 35.7912 91.4981 34.5665 91.4981H34.4019C41.7787 99.4025 52.2838 104.35 63.948 104.35C75.6123 104.35 86.1156 99.4025 93.4942 91.4981H59.2877V91.4964Z" fill="white"/>
</svg>
