<svg width="72" height="63" viewBox="0 0 72 63" fill="none" xmlns="http://www.w3.org/2000/svg">
<g id="solanaLogoMark 1" clip-path="url(#clip0_2544_59955)">
<path id="Vector" d="M71.6293 49.671L59.7435 62.142C59.4851 62.4129 59.1725 62.6289 58.8251 62.7765C58.4777 62.9241 58.1029 63.0002 57.7243 63H1.37986C1.111 63 0.84801 62.9231 0.623194 62.7789C0.398373 62.6347 0.221518 62.4293 0.114356 62.1881C0.00719451 61.9469 -0.025605 61.6803 0.0199876 61.4211C0.0655802 61.1618 0.187579 60.9213 0.370994 60.729L12.2657 48.258C12.5234 47.9878 12.835 47.7723 13.1813 47.6247C13.5276 47.4771 13.9011 47.4006 14.2789 47.4H70.6202C70.889 47.4 71.152 47.4769 71.377 47.6211C71.6015 47.7653 71.7783 47.9707 71.886 48.2119C71.9929 48.4532 72.0257 48.7197 71.9801 48.9789C71.9344 49.2381 71.8125 49.4787 71.6293 49.671ZM59.7435 24.558C59.4851 24.2871 59.1725 24.0711 58.8251 23.9235C58.4777 23.7759 58.1029 23.6998 57.7243 23.7H1.37986C1.111 23.7 0.84801 23.7768 0.623194 23.9211C0.398373 24.0654 0.221518 24.2707 0.114356 24.5119C0.00719451 24.7531 -0.025605 25.0197 0.0199876 25.279C0.0655802 25.5381 0.187579 25.7787 0.370994 25.971L12.2657 38.442C12.5234 38.7122 12.835 38.9277 13.1813 39.0753C13.5276 39.2229 13.9011 39.2994 14.2789 39.3H70.6202C70.889 39.3 71.152 39.2232 71.377 39.0789C71.6015 38.9346 71.7783 38.7293 71.886 38.4881C71.9929 38.2469 72.0257 37.9803 71.9801 37.721C71.9344 37.4619 71.8125 37.2213 71.6293 37.029L59.7435 24.558ZM1.37986 15.6H57.7243C58.1029 15.6002 58.4777 15.5241 58.8251 15.3765C59.1725 15.2289 59.4851 15.0129 59.7435 14.742L71.6293 2.271C71.8125 2.07869 71.9344 1.83815 71.9801 1.57894C72.0257 1.31972 71.9929 1.05312 71.886 0.811898C71.7783 0.570673 71.6015 0.365326 71.377 0.221089C71.152 0.0768521 70.889 8.88257e-06 70.6202 0H14.2789C13.9011 0.000628852 13.5276 0.0771027 13.1813 0.224687C12.835 0.372271 12.5234 0.587824 12.2657 0.858003L0.37406 13.329C0.190822 13.5211 0.0688775 13.7614 0.0231815 14.0203C-0.0225145 14.2792 0.0100247 14.5456 0.116808 14.7867C0.223592 15.0279 0.399979 15.2332 0.624336 15.3777C0.848695 15.5221 1.11127 15.5994 1.37986 15.6Z" fill="url(#paint0_linear_2544_59955)"/>
</g>
<defs>
<linearGradient id="paint0_linear_2544_59955" x1="6.07764" y1="64.5015" x2="63.7202" y2="-1.91683" gradientUnits="userSpaceOnUse">
<stop offset="0.08" stop-color="#9945FF"/>
<stop offset="0.3" stop-color="#8752F3"/>
<stop offset="0.5" stop-color="#5497D5"/>
<stop offset="0.6" stop-color="#43B4CA"/>
<stop offset="0.72" stop-color="#28E0B9"/>
<stop offset="0.97" stop-color="#19FB9B"/>
</linearGradient>
<clipPath id="clip0_2544_59955">
<rect width="72" height="63" fill="white"/>
</clipPath>
</defs>
</svg>
