<svg width="84" height="84" viewBox="0 0 84 84" fill="none" xmlns="http://www.w3.org/2000/svg">
<g id="Frame 48100826">
<g id="Group">
<path id="Vector" fill-rule="evenodd" clip-rule="evenodd" d="M62.0674 35.2929L62.0658 35.2964C65.4399 39.5272 67.4565 44.8857 67.4565 50.7141C67.4565 56.629 65.3796 62.0603 61.9145 66.3198L61.6162 66.6865L61.5371 66.2205C61.4697 65.824 61.3908 65.4238 61.2989 65.0204C59.5646 57.4009 53.9144 50.8673 44.6151 45.577C38.3353 42.0143 34.7408 37.7243 33.797 32.8504C33.1875 29.6986 33.6406 26.5328 34.5164 23.8212C35.3918 21.1106 36.6941 18.8394 37.8005 17.4721L41.4186 13.0478C42.053 12.2721 43.2403 12.2721 43.8747 13.0478L62.0674 35.2929ZM67.7893 30.8734L43.5428 1.22388C43.0799 0.657796 42.2131 0.657796 41.7503 1.22388L17.503 30.872L17.4248 30.9716C12.9629 36.5084 10.2927 43.5447 10.2927 51.2043C10.2927 69.0433 24.7777 83.5052 42.6465 83.5052C60.5155 83.5052 75.0003 69.0433 75.0003 51.2043C75.0003 43.5447 72.3302 36.5084 67.8684 30.9716L67.7893 30.8734ZM23.3047 35.1973L25.4744 32.5442L25.54 33.0336C25.5919 33.4216 25.6548 33.8114 25.7295 34.2028C27.1328 41.5655 32.1456 47.7046 40.5266 52.4593C47.8118 56.6056 52.0534 61.3733 53.2755 66.6026C53.7854 68.7849 53.8765 70.9319 53.6555 72.8091L53.642 72.9254L53.5368 72.9766C50.2488 74.583 46.5525 75.4845 42.6457 75.4845C28.9436 75.4845 17.8352 64.3948 17.8352 50.7141C17.8352 44.8403 19.883 39.4432 23.3047 35.1973Z" fill="#4CA3FF"/>
</g>
</g>
</svg>
